<?xml version="1.0" encoding="utf-8"?>
<!-- Generator: Adobe Illustrator 22.1.0, SVG Export Plug-In . SVG Version: 6.00 Build 0)  -->
<svg version="1.1" id="layer" xmlns="http://www.w3.org/2000/svg" xmlns:xlink="http://www.w3.org/1999/xlink" x="0px" y="0px"
	 viewBox="0 0 200 31.4" style="enable-background:new 0 0 200 31.4;" xml:space="preserve">
<style type="text/css">
	.st0{fill:#FFFFFF;}
	.st1{fill:#645FAA;}
	.st2{fill:#C9234A;}
	.st3{fill:#0089CF;}
	.st4{fill:#F37021;}
	.st5{fill:#0DB14B;}
	.st6{fill:#FDB913;}
	.st7{fill:#0F1012;}
</style>
<g id="Footer">
	<g id="Desktop_Footer" transform="translate(-1105.000000, -506.000000)">
		<g id="Group-2" transform="translate(135.000000, 40.000000)">
			<g id="nbcsports-logo" transform="translate(970.000000, 466.000000)">
				<path id="Shape" class="st0" d="M20,3c0.6-1,1.4-1.7,2.4-2.2c1.8-0.8,3.9-0.5,5.4,0.8c1.4,1.2,2,2.9,1.7,4.7
					c0.3-0.1,0.7-0.2,1-0.4c2.1-0.6,4.3,0.1,5.6,1.8c1,1.4,1.3,3.1,0.7,4.7c-0.3,0.8-0.8,1.5-1.5,2l0.1,0.1c2,0.2,3.8,1.5,4.4,3.4
					c0.6,1.8,0.1,3.8-1.3,5.1c-1.1,1-2.6,1.5-4.1,1.4H5.6c-2.2,0.2-4.3-1.1-5.2-3.1c-0.8-1.9-0.4-4,1.1-5.4c0.9-0.9,2-1.4,3.3-1.5
					c-1.4-1.2-2-3.1-1.7-4.9C3.4,8,4.6,6.6,6.2,6c1.4-0.5,3-0.4,4.3,0.3l0,0c-0.4-2,0.5-4,2.3-5.1c1.7-1,3.9-1,5.5,0.1
					C19,1.7,19.6,2.3,20,3"/>
				<g id="Group" transform="translate(1.197605, 1.777778)">
					<path id="Shape_1_" class="st1" d="M26.9,2c0.6,1.2,0.3,2.9-0.4,4l-5,11.1l0,0L19.7,5.9c-0.1-1.1,1-1.5,1.7-2.1
						c-0.1-0.1-0.2-0.2-0.3-0.2l-1.7,0l0-0.1c0-1.4,0.8-2.7,2.1-3.4c1.4-0.7,3.2-0.6,4.4,0.5C26.3,1,26.7,1.5,26.9,2"/>
					<path id="Shape_2_" class="st2" d="M17.7,1.6c0.4,0.8,0.6,1.6,0.5,2.5l-2,12.9l-0.5-1L10.5,4.8c-0.5-1.5,0-3,1.1-4.1
						s2.8-1.3,4.2-0.7C16.6,0.3,17.3,0.9,17.7,1.6"/>
					<path id="Shape_3_" class="st3" d="M34.3,7.1c0.6,1.3,0.6,2.8-0.2,4c-0.5,0.8-1.3,1.1-1.9,1.6l-10.6,7.2l0.1-0.3L27.2,7
						c0.8-1.5,2.5-2.3,4.1-2C32.6,5.2,33.7,6,34.3,7.1"/>
					<path id="Shape_4_" class="st4" d="M10.3,7l5.8,12.9H16l-11.8-8c-1.2-1-1.7-2.5-1.3-4c0.3-1.2,1.2-2.2,2.4-2.6
						C7.2,4.5,9.3,5.3,10.3,7"/>
					<path id="Shape_5_" class="st5" d="M37.4,16.2c0.6,1.3,0.4,2.8-0.5,3.9c-0.8,1-2,1.5-3.2,1.5H21.1l10.5-7.2
						c1-0.6,2.2-0.7,3.3-0.4C36,14.3,36.9,15.1,37.4,16.2"/>
					<path id="Shape_6_" class="st6" d="M0.2,16.2c-0.6,1.3-0.4,2.8,0.5,3.9c0.8,1,2,1.5,3.3,1.5h12.5L6,14.4
						c-1-0.6-2.2-0.7-3.3-0.4C1.6,14.3,0.7,15.1,0.2,16.2"/>
				</g>
				<path id="Shape_7_" class="st7" d="M79.1,23.4H67V1.2h11.8c5.2,0,8.4,2.3,8.4,5.7V7c0,2.5-1.5,3.9-3.3,4.8
					c2.9,1,4.8,2.5,4.8,5.5v0.1C88.7,21.3,84.9,23.3,79.1,23.4L79.1,23.4z M81.7,7.7c0-1.5-1.3-2.3-3.7-2.3h-5.5v4.7h5.2
					C80.1,10.2,81.7,9.5,81.7,7.7L81.7,7.7L81.7,7.7z M83.1,16.6c0-1.5-1.3-2.4-4.1-2.4h-6.5v4.9h6.7c2.5,0,4-0.8,4-2.4L83.1,16.6
					C83.1,16.6,83.1,16.6,83.1,16.6z"/>
				<path id="Shape_8_" class="st7" d="M101.8,23.7c-7.5,0-13.1-5-13.1-11.4v-0.1C88.8,6,94.2,0.8,102,0.8c4.8,0,7.7,1.4,10,3.4
					l-3.6,3.6c-2-1.6-4-2.5-6.5-2.5c-4.3,0-7.4,3.1-7.4,6.9v0.1c0,3.8,3,7,7.4,7c2.9,0,4.7-1,6.7-2.6l3.6,3.1
					C109.7,22.2,106.7,23.7,101.8,23.7"/>
				<polygon id="Shape_9_" class="st7" points="48.4,17.4 48.4,9.3 60.7,23.4 65.4,23.4 65.4,1.2 59.9,1.2 59.9,14.8 48,1.2 
					42.8,1.2 42.8,18.5 42.8,21.2 42.8,23.4 48.4,23.4 48.4,20.7 				"/>
				<path id="Shape_10_" class="st6" d="M148.8,11.1c-1-0.8-2.5-0.2-2.5-0.2c-2.8,0.9-5.8,3.1-8.2,5.1c1.1-1.2,2.3-2.6,3.7-4
					c0,0,1-0.5,0.2-1.3c-0.8-0.7-1.7-1.5-1.7-1.5c-0.1-0.1-0.3-0.2-0.5-0.2c-0.1,0.2-0.1,0.4,0,0.5c-0.1,0.2-0.3,0.4-0.5,0.6
					l-0.1,0.1c-0.9,0.7-1.9,1.3-3,1.7c-1.6,0.6-3.6,1.3-5.8,2c-0.1-0.1-0.3-0.3-0.5-0.4c-2.6-1.6-10.5-1.8-13.5-2
					c-3.2-0.2-4-0.4-4.1-1c-0.2-0.7,0.9-1.7,2.3-2.7c5.7-4.1,13.5-4.9,16.1-4.9c2.8,0,3.6,0.4,3.6,0.6c0,0.1,0,0.3-0.1,0.4
					c-0.5,0.5-1.1,0.9-1.7,1.3c-1.7,1.1-3.5,2-5.3,2.8C126.8,8.9,128,9,128,9c1.6-0.1,3.2-0.4,4.6-1c3-1.1,3.8-2.2,3.8-2.8
					c0.1-0.7,0-1.4-0.2-2.1c-0.8-3.3-6-3.1-6-3.1C124,0.1,118,2,113,5.6c-3.1,2.2-2.6,3.8-2.6,3.8s0,3.1,2.3,3.8
					c1,0.3,2.1,0.5,3.2,0.6c3,0.3,5.3,0.3,8.4,0.5c1.3,0.1,2.7,0.3,4,0.6c-2.6,0.9-5.1,2-7.5,3.1c-2,1-5,2.7-6.1,4
					c-1.3,1.6-0.1,2.9-0.2,2.6c0.2,0.4,1,1.8,4.4,1.4c1.8-0.3,3.6-0.9,5.2-1.8c1.7-0.9,3.3-2.1,4.8-3.5c2-1.9,2.5-3.3,2.5-4.5
					c0-0.4-0.1-0.8-0.2-1.2c2.4-0.8,4.4-1.4,5.8-1.8c-3.8,4.6-10.3,13.3-7.4,17.3c0.1,0.2,0.3,0.4,0.4,0.6c0,0,0.5,0.4,0.7,0.2
					c0.2-0.3-0.4-0.5-0.4-0.5c-0.2-0.3-0.3-0.7-0.2-1c0.1-0.9,0.4-1.7,0.7-2.6l0.8-1.8c1.3-2.2,2.9-4.2,4.7-6
					c5.1-4.9,9.5-7,10.5-7.2c0.7-0.2,1-0.2,1.1-0.1c0.6,0.6-1,3.1-1,3.1l-0.1,0.1c-2.9,4.2-4.6,5.4-6.1,5.9
					c-0.6,0.2-1.3,0.2-1.9-0.2c-0.3-0.3-0.5-0.6-0.5-1c0.1-0.4-0.1-0.4-0.1-0.4c-0.7,0.2-0.3,1.5-0.3,1.5c0.5,2.4,3.9,3,7,0.6
					c4.2-3.1,5-5.6,5.6-7.1C151,13.1,149.8,11.9,148.8,11.1 M129.4,16.5c-1.1,1.8-4.6,4-5.8,4.6c-1.3,0.8-2.6,1.4-4.1,1.9
					c-2.1,0.7-3.9,1.1-4.1,0.6c-0.1-0.2-0.2-0.3,0.5-1c0.8-0.8,3.2-2.4,5.4-3.5c2.6-1.3,5.4-2.5,8.1-3.5
					C129.6,15.9,129.6,16.2,129.4,16.5"/>
				<path id="Shape_11_" class="st6" d="M196.6,16.6c-1.3,1.2-4.9,4.4-7.2,5.6c0.5-0.7,0.8-1.5,1-2.3c0.2-0.8,0.6-3,0.9-4.6
					c0.1-0.6,0.3-1.2,0.6-1.8c0.3-0.8,0.8-0.7,1-0.9c0.1-0.2,0-0.4-0.2-0.6c-0.2-0.2-0.4-0.4-0.6-0.6c-0.3-0.3-0.6-0.5-1-0.6
					c-0.2,0-0.4,0-0.6,0.1c-0.3,0.3-0.6,0.6-0.7,0.9c-1.7,1.9-7.5,7.9-11,10c0.2-0.1-2.8,1.9-2.2-0.7c0.3-1.2,1.5-3.9,4.9-8.1l1.8-2
					c1.5-0.2,3-0.4,4.5-0.7c0,0,13.3-1.6,9.7,1.2c0,0,0.2,0.4,0.8,0c1.2-0.9,1.6-1.7,1.5-2.1c-0.2-1.4-2.3-1.7-6-1.4
					c-1.9,0.2-5.6,0.7-8.9,1.2l3.2-3.6c0.2-0.1,0.3-0.3,0.3-0.5s-0.1-0.4-0.3-0.5c-0.5-0.4-1-0.7-1.5-0.9c0,0-0.3-0.3-0.9,0.2
					c-1.9,1.9-3.7,3.9-5.3,6c-3.2,0.4-7,0.7-7.9,0.8c-0.2,0.1-0.5,0-0.7-0.2c0,0-0.4-0.3-0.3,0.4c0,0,0.1,1.8,1.9,1.5
					c1-0.2,3.1-0.5,5.7-0.8c-0.4,0.6-1.1,1.4-1.8,2.4c-3.2,3.5-8.7,9.1-9.9,8.3c-0.2-0.2-0.2-0.6-0.1-0.8c0.3-0.9,1.3-2.5,3.4-4.9
					c0,0,1-1.1,0.9-1.6c-0.1-0.8-0.5-0.7-0.5-0.7s-2.8-0.8-3.7-1.6c0.4-0.6,1.1-1.9,0.2-2.5c0,0-1.2-0.7-2,1c-0.4,0.6-0.3,1.4,0.1,2
					c-0.6,0.7-2.4,2.4-4.1,2.9c0-0.5-0.3-0.9-0.8-1.2c0,0-1-0.5-1.5,0.1c-0.5,0.6-0.1,1.2,0.5,1.6c-0.3,0.7-0.7,1.4-1.2,2
					c-0.8,1.3-1.9,2.4-3.2,3.3c-0.5,0.3-2.4,1.4-2.9-0.1c-0.3-0.8,0.2-2.5,1.4-4.3c2.5-3.8,5.9-5,6.8-4.5c0.2,0.2,0.3,0.6,0.2,0.9
					c0,0-0.1,0.3,0.3,0.3c0.3,0,0.6-0.3,0.6-0.6c0.1-0.8-0.6-1.7-1.4-2.4c-0.3-0.2-0.6-0.4-0.9-0.5c-1.2-0.3-2.4-0.1-3.5,0.5
					c-2.2,1.2-4,2.9-5.2,5.1c-0.6,1-0.9,2.1-1,3.3c0,0.7,0.2,1.5,0.5,2.1c0.5,0.8,1.2,1.4,2,1.8c2.1,1.1,4.7-1,5.7-1.9
					c1.4-1.3,2.6-2.8,3.4-4.6c2.3-0.6,4.5-2.8,5.2-3.6c0.1,0.1,0.3,0.2,0.4,0.3l1.4,0.7c-0.6,0.7-1.1,1.4-1.6,2.1
					c-0.9,1.2-3,4.1-1.6,6c0.3,0.5,0.7,0.8,1.3,1.1c1.9,0.7,3.9-1.1,7.2-4.4c0.5-0.5,1-1.1,1.5-1.6c-0.2,0.4-0.4,0.8-0.5,1.2
					c-0.8,2-0.3,3.7,1.3,4.8c0.9,0.6,2.2,0.3,3.6-0.6c2.8-1.8,6.8-5.8,9.4-8.6c-0.1,0.4-0.2,0.8-0.3,1.2c-0.6,3.4-2.7,7.7-3.5,6.6
					c-0.1-0.4-0.2-0.8-0.5-1.1c-0.3-0.3-0.8-0.4-1.2-0.1c-0.6,0.4-0.3,1.8,1.5,2.7c0.3,0.2,0.7,0.3,1.1,0.4c1,0.2,3,0.2,5.3-1.6
					c1.8-1.3,3.6-3,4.9-4.2c0-0.6,0.1-1.1,0.3-1.6"/>
			</g>
		</g>
	</g>
</g>
</svg>
