<?xml version="1.0" encoding="UTF-8"?>
<svg width="333.6529" height="51.05844" version="1.1" viewBox="0 0 477.7182 73.01567" xmlns="http://www.w3.org/2000/svg">
 <title>NBCSN logo (flat)</title>
 <g transform="matrix(.4894991 0 0 .4616118 -5.165264 .02028429)">
  <path d="m395.8605 118.1017h-60.49192v-112.0844h59.04877c25.97664 0 42.09178 11.39485 42.09178 28.9832v0.330721c0 12.62754-7.60658 19.69294-16.68638 24.05245 14.70206 4.960818 23.75179 12.50727 23.75179 27.54006v0.330721c0 20.47465-18.88117 30.69694-47.59378 30.69694m12.62753-78.86197c0-7.335997-6.55429-11.51511-18.37005-11.51511h-27.63026v23.69166h25.79626c12.35694 0 20.17399-3.51767 20.17399-11.81577v-0.360786zm7.06541 44.82775c0-7.516391-6.34383-12.02622-20.68511-12.02622h-32.38061v24.65376h33.25252c12.38701 0 19.8132-3.818327 19.8132-12.02622v-0.481049z" stroke-width="3.00656"/>
  <path d="m509.4181 120.0259c-37.43162 0-65.27233-25.4054-65.27233-57.60562v-0.300656c0-31.8695 27.29953-57.99647 66.32463-57.99647 24.05245 0 38.36365 7.065407 50.23955 17.31776l-17.85894 18.03934c-9.80138-7.847112-19.78314-12.68767-32.50087-12.68767-21.46682 0-36.92051 15.69422-36.92051 34.93618v0.300655c0 19.18183 15.03278 35.23684 36.92051 35.23684 14.52166 0 23.45113-5.141211 33.40283-13.19878l17.79882 15.87462c-13.04846 12.35694-27.63025 20.02366-52.13369 20.02366" stroke-width="3.00656"/>
  <path transform="matrix(3.006556 0 0 3.006556 .017276 .004147)" d="m100.98 39.28h7.91v-37.27h-9.18v22.96l-19.83-22.96h-8.58v37.27h9.19v-23.69z"/>
 </g>
 <g transform="matrix(1.431782 0 0 1.431782 -.417354 69.61303)" stroke-width=".928932">
  <path d="m32.94928-44.35576c0.90013-1.477005 2.40036-3.014388 4.00927-3.662787 2.76636-1.26985 6.49232-0.730139 8.75798 1.270783 2.19136 1.985129 3.30329 4.703189 2.7803 7.747303 0.5425-0.100325 1.08035-0.447746 1.6535-0.640035 3.38782-0.95773 6.98651 0.08175 9.163 3.001384 1.64514 2.078952 2.06595 5.313498 1.085 7.818831-0.49048 1.267994-1.32188 2.411511-2.39944 3.378531l0.11054 0.10404c3.16302 0.156061 6.27123 2.610303 7.23546 5.625621 1.03205 3.03854 0.11984 6.285162-2.10589 8.506243-1.81885 1.790052-4.14304 2.41801-6.74034 2.361346h-47.09784c-3.87273 0.08453-6.85832-1.630276-8.47095-5.06733-1.2587-2.956794-0.64189-6.732909 1.72503-8.974425 1.47422-1.561536 3.33766-2.198784 5.35252-2.517409-2.27032-2.104963-3.37389-4.99859-2.73292-8.091938 0.4626-2.509049 2.60008-5.048752 5.05061-5.923807 2.1672-0.859264 5.09519-0.708777 7.07847 0.458892l0.0762-0.0836c-0.60009-3.416617 0.91779-6.494172 3.74174-8.379908 2.52206-1.703664 6.56384-1.665577 9.04038 0.149557 1.10636 0.683698 2.02415 1.847649 2.68741 2.918711" fill="#fff"/>
  <path d="m46.2898-43.07875c1.00139 2.036222 0.42359 4.713408-0.64561 6.546193l-8.1709 18.39381-0.0669 0.07803-2.9633-18.65391c-0.23781-1.784481 1.68695-2.548993 2.80817-3.41383-0.0502-0.262888-0.34928-0.250812-0.53414-0.371573l-2.75521-0.02972-0.0817-0.08732c8e-3 -2.309328 1.26428-4.452379 3.3711-5.573601 2.20343-1.278213 5.31442-0.930792 7.22431 0.701343 0.77566 0.695774 1.43427 1.503017 1.81421 2.410585" fill="#5f53ae"/>
  <path d="m31.23057-43.72408c0.6614 1.234552 1.05527 2.643744 0.81653 4.194134l-3.33022 21.35618c0.013 0.0353-0.0121 0.05945-0.0437 0.06967l-0.8574-1.712953-8.35482-18.65763c-0.78031-2.405008-0.0539-4.913128 1.68694-6.631656 1.76125-1.79284 4.67439-2.281459 6.97071-1.303292 1.22434 0.522989 2.38365 1.49651 3.11193 2.685546" fill="#c81a46"/>
  <path d="m58.37633-34.72848c1.12215 1.916389 0.86762 4.814661-0.37715 6.593569-0.77845 1.250344-2.0613 1.869942-3.12865 2.692977l-17.30881 11.87734h-0.0474l0.19507-0.570365 9.17507-20.70035c1.3739-2.443095 3.99163-3.682292 6.77286-3.307932 1.90152 0.344634 3.79747 1.581045 4.71898 3.414759" fill="#0e88d3"/>
  <path d="m19.05819-34.83558 9.54758 21.27071h-0.15792l-19.24657-13.26702c-1.96005-1.646069-2.75521-4.119819-2.09103-6.619579 0.49606-1.873658 2.05202-3.623768 3.89502-4.314895 3.0274-1.109146 6.44123 0.06781 8.05292 2.930785" fill="#f25c19"/>
  <path d="m63.39592-19.71217c0.95123 2.023216 0.57594 4.800727-0.79238 6.524827-1.35995 1.652574-3.18066 2.548992-5.31442 2.491401l-20.52107 0.01671 17.19177-11.95723c1.68323-1.083135 4.23315-1.280069 6.06315-0.405014 1.41941 0.549929 2.74685 1.94054 3.37295 3.329296" fill="#33b540"/>
  <path d="m2.62871-19.71217c-0.96238 2.023216-0.58709 4.800727 0.78402 6.524827 1.36274 1.652574 3.18346 2.548992 5.31629 2.491401l20.52663 0.016713-17.19455-11.95723c-1.67765-1.083135-4.23315-1.280069-6.06872-0.405014-1.41384 0.549929-2.74593 1.94054-3.36367 3.329296" fill="#fab20b"/>
 </g>
 <path class="yellow" d="m356.7323 26.46953c-2.40433-1.79377-5.80454-0.36971-5.80454-0.36971-6.58701 1.99917-13.7004 7.05186-19.30577 11.78961 2.57504-2.84813 5.49155-5.91535 8.82063-9.21534 0 0 2.37587-1.17759 0.55485-2.9029-1.82104-1.72531-3.98352-3.35476-3.98352-3.35476a1.422681 1.369292 0 0 0-1.29463-0.42448 1.152372 1.109126 0 0 0 0 1.20497 8.692582 8.366373 0 0 1-1.08124 1.46514l-0.18496 0.2054a32.38023 31.16508 0 0 1-7.11339 3.97095c-3.77011 1.36929-8.53608 2.9029-13.78578 4.68297a6.188664 5.95642 0 0 0-1.06701-0.82157c-6.21714-3.72448-24.75466-4.10788-31.8823-4.55974-7.68249-0.56141-9.41816-1.02697-9.70269-2.25934-0.38411-1.60207 2.04865-3.8614 5.52001-6.28505 13.45856-9.4618 32.03879-11.36512 38.05673-11.28296 6.587 0.0958 8.43649 0.84896 8.53608 1.36929a1.024331 0.9858902 0 0 1-0.19919 0.8078797 18.22455 17.54063 0 0 1-4.0973 2.9029 101.5937 97.78113 0 0 1-12.57651 6.44937c-1.42269 1.28713 1.33733 1.61576 1.33733 1.61576a33.80291 32.53438 0 0 0 10.96886-2.28672c7.11341-2.62904 8.89177-4.99791 9.07671-6.42198a12.67609 12.20039 0 0 0-0.58329-4.76513c-1.83527-7.50372-14.22682-7.18879-14.22682-7.18879a71.13407 68.4646 0 0 0-40.71715 12.93981c-7.24144 5.10746-6.17442 8.77716-6.17442 8.77716s-0.11382 7.09294 5.49153 8.80455a32.02456 30.82276 0 0 0 7.58292 1.45145c7.11338 0.67095 12.46267 0.7668 19.91753 1.25975a53.91962 51.89616 0 0 1 9.44661 1.27344 184.2657 177.3507 0 0 0-17.7693 7.20247c-4.75177 2.28672-11.87941 6.13443-14.41176 9.20165-3.05877 3.69709-0.19919 6.61367-0.56909 5.9838 0.45528 0.80789 2.36167 4.10788 10.49939 3.1083a37.71528 36.29993 0 0 0 12.19238-4.19003 52.2124 50.25301 0 0 0 11.23918-7.9419c4.62373-4.27219 5.91836-7.58588 5.93259-10.46139a7.611346 7.325712 0 0 0-0.52639-2.73858c5.56267-1.84855 10.42827-3.25892 13.65774-4.10788-9.04824 10.48878-24.34208 30.53521-17.57011 39.70946a10.68434 10.28338 0 0 0 1.05277 1.3693s1.18083 0.94481 1.65031 0.35602c0.4695-0.58881-0.91049-1.20498-0.91049-1.20498a3.144126 3.026135 0 0 1-0.45528-2.40996 27.38662 26.35887 0 0 1 1.62185-5.92903l1.87795-4.10788a71.53242 68.848 0 0 1 11.08268-13.78877c12.00744-11.31034 22.59219-16.00702 24.81158-16.67797 1.57917-0.49295 2.27627-0.35602 2.53236-0.12323 1.50805 1.36929-2.27627 7.18878-2.27627 7.18878l-0.18496 0.27386c-6.8431 9.58504-10.84084 12.32363-14.41175 13.58338a5.093199 4.902065 0 0 1-4.43878-0.3834 3.585157 3.450616 0 0 1-1.26619-2.40996c0.14232-1.01328-0.32721-0.98589-0.32721-0.98589-1.69301 0.56141-0.76826 3.45061-0.76826 3.45061 1.28042 5.47717 9.16208 6.84646 16.64536 1.47884 9.95879-7.13401 11.87941-12.84396 13.28788-16.32196 1.40843-3.478-1.28044-6.14812-3.69899-7.95558m-45.92415 12.22777c-2.48969 4.10787-10.91195 9.14687-13.72889 10.68048a62.46994 60.12561 0 0 1-9.58886 4.40912c-4.89403 1.69793-9.24742 2.49211-9.63155 1.36929-0.17071-0.47925-0.48373-0.69834 1.08124-2.30041 1.8637-1.88963 7.55443-5.40871 12.80415-8.02405a174.1647 167.6287 0 0 1 19.23464-7.98297 1.92062 1.848544 0 0 1-0.15657 1.87592" fill="#fdb913" stroke-width="1.39573"/>
 <path class="yellow" d="m469.8924 39.01224c-3.01611 2.73858-11.48108 10.05061-16.98688 12.88504a14.22681 13.69292 0 0 0 2.36167-5.35393c0.48371-1.84855 1.30889-6.84646 2.17672-10.55724a24.44167 23.52443 0 0 1 1.42269-4.10788c0.82511-1.78008 1.99171-1.62946 2.24781-2.16348a1.138145 1.095434 0 0 0-0.38413-1.27344 12.60496 12.13193 0 0 0-1.42265-1.36929 6.43052 6.1892 0 0 0-2.27633-1.36929 1.579176 1.519914 0 0 0-1.30885 0.26016 7.41217 7.134011 0 0 0-1.76412 2.06763c-4.12577 4.2585-17.68393 18.19789-25.94972 22.92195 0.44103-0.26016-6.71501 4.39543-5.19276-1.67054 0.6971-2.73858 3.57093-8.91409 11.63754-18.63606l4.18266-4.50497c3.45711-0.46556 7.02802-0.99958 10.6132-1.56099 0 0 31.5124-3.75186 22.99058 2.73858 0 0 0.52634 1.01327 1.84943 0 2.73156-2.09502 3.77011-3.91617 3.61362-4.87468-0.54063-3.13568-5.49153-3.8614-14.22683-3.20414-4.58098 0.35601-13.24518 1.5336-20.99875 2.73858l7.63978-8.21575a1.33732 1.287134 0 0 0 0-2.28672 22.44991 21.60743 0 0 0-3.55666-2.1224s-0.75407-0.69834-2.09137 0.47925a168.289 161.9735 0 0 0-12.5623 13.69292c-7.66825 0.9722-16.47462 1.58838-18.75088 1.84854a1.550723 1.492528 0 0 1-1.55074-0.52032s-0.9959-0.67096-0.76828 0.91742c0 0 0.22765 4.24481 4.48144 3.478 2.41859-0.45187 7.29836-1.06805 13.43014-1.84854-1.05281 1.28713-2.61774 3.23153-4.26806 5.47716-7.62558 8.01036-20.55772 20.88171-23.44578 19.17009a1.906393 1.834851 0 0 1-0.19918-1.9307c0.65444-2.05394 3.11569-5.75102 8.03818-11.31035 0 0 2.27628-2.60165 2.17668-3.75186-0.14232-1.75269-1.15238-1.71162-1.15238-1.71162s-6.57278-1.87592-8.74946-3.75186c0.92471-1.36929 2.58929-4.4365 0.45526-5.86056 0 0-2.77423-1.68423-4.78022 2.30041a4.268044 4.107876 0 0 0 0.32721 4.55974c-1.42266 1.50622-5.69072 5.47716-9.77382 6.58629a3.457116 3.327379 0 0 0-1.77834-2.73858s-2.26207-1.10913-3.51402 0.27386c-1.25198 1.38298-0.14232 2.73858 1.10968 3.66969a27.77074 26.72858 0 0 1-2.84535 4.69668 26.6895 25.68792 0 0 1-7.58291 7.65434c-1.13814 0.73942-5.69072 3.2863-6.94268-0.20539-0.65443-1.93071 0.44103-5.65518 3.28639-9.88629 5.83301-8.73608 13.98497-11.61159 16.20435-10.25599a1.934847 1.862237 0 0 1 0.44103 2.08132s-0.24185 0.60249 0.59751 0.68465a1.422681 1.369292 0 0 0 1.42271-1.3693c0.34142-1.84854-1.42271-3.95725-3.38598-5.47716a12.24929 11.7896 0 0 0-2.07714-1.15021 11.28186 10.85848 0 0 0-8.20885 1.09543 29.9759 28.85098 0 0 0-12.19237 11.74853 15.93403 15.33607 0 0 0-2.30477 7.61326 9.95877 9.585044 0 0 0 1.2662 4.86098 13.7431 13.22736 0 0 0 4.80865 4.23112c5.07898 2.53319 11.05423-2.24564 13.3732-4.28589a32.89239 31.65803 0 0 0 7.95279-10.47508c5.37773-1.36929 10.68433-6.50414 12.42002-8.32529 0.31299 0.20539 0.62599 0.41078 0.99588 0.60248l3.21525 1.64316a46.46478 44.72107 0 0 0-3.88392 4.8199c-2.0629 2.82074-7.18454 9.40704-3.86969 13.69292a6.900004 6.641066 0 0 0 2.95917 2.43734c4.38187 1.67054 9.31853-2.46473 16.98684-10.21492q1.80676-1.84854 3.49976-3.65601a30.57342 29.42608 0 0 0-1.28042 2.73859c-1.7926 4.49127-0.75403 8.53069 2.98766 10.95433 2.23361 1.36929 5.12161 0.76681 8.40804-1.36929 6.53008-4.10787 16.16162-13.46013 22.25072-19.67672-0.21338 0.86265-0.42683 1.78008-0.61176 2.83443-1.42269 7.77758-6.35939 17.8008-8.29425 15.22653a5.320828 5.121152 0 0 0-1.1239-2.57427 2.091342 2.012859 0 0 0-2.84538-0.28756c-1.42266 0.86266-0.71132 4.10788 3.57095 6.24398a8.265779 7.955586 0 0 0 2.64622 0.82158c2.33315 0.3834 7.028 0.41078 12.59072-3.57385 4.268-3.06722 8.53604-6.84647 11.65173-9.58505a15.64949 15.06221 0 0 1 0.64019-3.79294" fill="#fdb913" stroke-width="1.39573"/>
</svg>